<svg width="23" height="20" viewBox="0 0 23 20" fill="none" xmlns="http://www.w3.org/2000/svg">
<path d="M13.3116 7.49996H10.9644C10.1866 7.49996 9.55603 8.0596 9.55603 8.74996C9.55603 9.44032 10.1866 9.99996 10.9644 9.99996H11.9033C12.6811 9.99996 13.3116 10.5596 13.3116 11.25C13.3116 11.9403 12.6811 12.5 11.9033 12.5H9.55603M11.4338 6.66663V7.49996M11.4338 12.5V13.3333M17.0673 9.99996H17.0767M5.80042 9.99996H5.8098M2.0448 6.83329L2.0448 13.1666C2.0448 14.1 2.0448 14.5668 2.24947 14.9233C2.4295 15.2369 2.71677 15.4918 3.0701 15.6516C3.47179 15.8333 3.99762 15.8333 5.04929 15.8333L17.8184 15.8333C18.8701 15.8333 19.3959 15.8333 19.7976 15.6516C20.1509 15.4918 20.4382 15.2369 20.6182 14.9233C20.8229 14.5668 20.8229 14.1 20.8229 13.1666V6.83329C20.8229 5.89987 20.8229 5.43316 20.6182 5.07664C20.4382 4.76304 20.1509 4.50807 19.7976 4.34828C19.3959 4.16663 18.8701 4.16663 17.8184 4.16663L5.04929 4.16663C3.99762 4.16663 3.47179 4.16663 3.0701 4.34828C2.71677 4.50807 2.4295 4.76304 2.24947 5.07664C2.0448 5.43316 2.0448 5.89987 2.0448 6.83329ZM17.5367 9.99996C17.5367 10.2301 17.3265 10.4166 17.0673 10.4166C16.808 10.4166 16.5978 10.2301 16.5978 9.99996C16.5978 9.76984 16.808 9.58329 17.0673 9.58329C17.3265 9.58329 17.5367 9.76984 17.5367 9.99996ZM6.26987 9.99996C6.26987 10.2301 6.05969 10.4166 5.80042 10.4166C5.54114 10.4166 5.33096 10.2301 5.33096 9.99996C5.33096 9.76984 5.54114 9.58329 5.80042 9.58329C6.05969 9.58329 6.26987 9.76984 6.26987 9.99996Z" stroke="#323232" stroke-width="2" stroke-linecap="round" stroke-linejoin="round"/>
</svg>
