<svg width="25" height="24" viewBox="0 0 25 24" fill="none" xmlns="http://www.w3.org/2000/svg">
<g id="bar-chart-square-down">
<path id="Icon" d="M12.5 3H16.7C18.3802 3 19.2202 3 19.862 3.32698C20.4265 3.6146 20.8854 4.07354 21.173 4.63803C21.5 5.27976 21.5 6.11984 21.5 7.8V16.2C21.5 17.8802 21.5 18.7202 21.173 19.362C20.8854 19.9265 20.4265 20.3854 19.862 20.673C19.2202 21 18.3802 21 16.7 21H8.3C6.61984 21 5.77976 21 5.13803 20.673C4.57354 20.3854 4.1146 19.9265 3.82698 19.362C3.5 18.7202 3.5 17.8802 3.5 16.2V12M8.5 13V17M16.5 11V17M12.5 7V17M2.5 5L5.5 8M5.5 8L8.5 5M5.5 8L5.5 2" stroke="#7D8BB7" stroke-width="2" stroke-linecap="round" stroke-linejoin="round"/>
</g>
</svg>
