<svg width="14" height="14" viewBox="0 0 14 14" fill="none" xmlns="http://www.w3.org/2000/svg">
<g id="cake" clip-path="url(#clip0_1_3699)">
<path id="Vector" d="M7.43066 3.52783C8.03191 3.52783 8.514 3.04033 8.514 2.4445C8.514 2.23867 8.45983 2.04908 8.35691 1.88658L7.43066 0.277832L6.50441 1.88658C6.4015 2.04908 6.34733 2.23867 6.34733 2.4445C6.34733 3.04033 6.83483 3.52783 7.43066 3.52783ZM9.92233 8.93908L9.34275 8.3595L8.75775 8.93908C8.05358 9.64325 6.81858 9.64867 6.109 8.93908L5.52941 8.3595L4.939 8.93908C4.58691 9.29117 4.11566 9.48617 3.61733 9.48617C3.22191 9.48617 2.859 9.36158 2.55566 9.15575V11.6528C2.55566 11.9507 2.79941 12.1945 3.09733 12.1945H11.764C12.0619 12.1945 12.3057 11.9507 12.3057 11.6528V9.15575C12.0023 9.36158 11.6394 9.48617 11.244 9.48617C10.7457 9.48617 10.2744 9.29117 9.92233 8.93908ZM10.6807 5.15283H7.97233V4.0695H6.889V5.15283H4.18066C3.2815 5.15283 2.55566 5.87867 2.55566 6.77783V7.612C2.55566 8.197 3.03233 8.67367 3.61733 8.67367C3.899 8.67367 4.16983 8.56533 4.36483 8.36492L5.524 7.21117L6.67775 8.36492C7.07858 8.76575 7.77733 8.76575 8.17816 8.36492L9.33733 7.21117L10.4911 8.36492C10.6915 8.56533 10.9569 8.67367 11.2386 8.67367C11.8236 8.67367 12.3002 8.197 12.3002 7.612V6.77783C12.3057 5.87867 11.5798 5.15283 10.6807 5.15283Z" fill="#757575"/>
</g>
<defs>
<clipPath id="clip0_1_3699">
<rect width="13" height="13" fill="white" transform="translate(0.930664 0.277832)"/>
</clipPath>
</defs>
</svg>
