<svg width="14" height="14" viewBox="0 0 14 14" fill="none" xmlns="http://www.w3.org/2000/svg">
<g id="Business / calender">
<path id="Vector" d="M6.76701 7.86108C6.87414 7.86108 6.97887 7.82932 7.06794 7.7698C7.15702 7.71028 7.22645 7.62568 7.26744 7.5267C7.30844 7.42773 7.31917 7.31882 7.29827 7.21374C7.27737 7.10867 7.22578 7.01215 7.15002 6.9364C7.07427 6.86065 6.97776 6.80906 6.87268 6.78816C6.76761 6.76726 6.6587 6.77798 6.55972 6.81898C6.46074 6.85998 6.37615 6.92941 6.31663 7.01848C6.25711 7.10756 6.22534 7.21229 6.22534 7.31942C6.22534 7.46308 6.28241 7.60085 6.38399 7.70243C6.48557 7.80402 6.62335 7.86108 6.76701 7.86108ZM9.47534 7.86108C9.58247 7.86108 9.6872 7.82932 9.77628 7.7698C9.86535 7.71028 9.93478 7.62568 9.97578 7.5267C10.0168 7.42773 10.0275 7.31882 10.0066 7.21374C9.9857 7.10867 9.93411 7.01215 9.85836 6.9364C9.7826 6.86065 9.68609 6.80906 9.58102 6.78816C9.47594 6.76726 9.36703 6.77798 9.26805 6.81898C9.16908 6.85998 9.08448 6.92941 9.02496 7.01848C8.96544 7.10756 8.93367 7.21229 8.93367 7.31942C8.93367 7.46308 8.99074 7.60085 9.09232 7.70243C9.19391 7.80402 9.33168 7.86108 9.47534 7.86108ZM6.76701 10.0278C6.87414 10.0278 6.97887 9.99598 7.06794 9.93646C7.15702 9.87694 7.22645 9.79235 7.26744 9.69337C7.30844 9.59439 7.31917 9.48548 7.29827 9.38041C7.27737 9.27534 7.22578 9.17882 7.15002 9.10307C7.07427 9.02731 6.97776 8.97573 6.87268 8.95482C6.76761 8.93392 6.6587 8.94465 6.55972 8.98565C6.46074 9.02665 6.37615 9.09607 6.31663 9.18515C6.25711 9.27423 6.22534 9.37895 6.22534 9.48608C6.22534 9.62974 6.28241 9.76752 6.38399 9.8691C6.48557 9.97068 6.62335 10.0278 6.76701 10.0278ZM9.47534 10.0278C9.58247 10.0278 9.6872 9.99598 9.77628 9.93646C9.86535 9.87694 9.93478 9.79235 9.97578 9.69337C10.0168 9.59439 10.0275 9.48548 10.0066 9.38041C9.9857 9.27534 9.93411 9.17882 9.85836 9.10307C9.7826 9.02731 9.68609 8.97573 9.58102 8.95482C9.47594 8.93392 9.36703 8.94465 9.26805 8.98565C9.16908 9.02665 9.08448 9.09607 9.02496 9.18515C8.96544 9.27423 8.93367 9.37895 8.93367 9.48608C8.93367 9.62974 8.99074 9.76752 9.09232 9.8691C9.19391 9.97068 9.33168 10.0278 9.47534 10.0278ZM4.05867 7.86108C4.16581 7.86108 4.27053 7.82932 4.35961 7.7698C4.44869 7.71028 4.51811 7.62568 4.55911 7.5267C4.60011 7.42773 4.61083 7.31882 4.58993 7.21374C4.56903 7.10867 4.51744 7.01215 4.44169 6.9364C4.36594 6.86065 4.26942 6.80906 4.16435 6.78816C4.05928 6.76726 3.95036 6.77798 3.85139 6.81898C3.75241 6.85998 3.66781 6.92941 3.6083 7.01848C3.54878 7.10756 3.51701 7.21229 3.51701 7.31942C3.51701 7.46308 3.57408 7.60085 3.67566 7.70243C3.77724 7.80402 3.91502 7.86108 4.05867 7.86108ZM10.5587 2.44442H10.017V1.90275C10.017 1.75909 9.95994 1.62132 9.85836 1.51973C9.75678 1.41815 9.619 1.36108 9.47534 1.36108C9.33168 1.36108 9.19391 1.41815 9.09232 1.51973C8.99074 1.62132 8.93367 1.75909 8.93367 1.90275V2.44442H4.60034V1.90275C4.60034 1.75909 4.54327 1.62132 4.44169 1.51973C4.34011 1.41815 4.20233 1.36108 4.05867 1.36108C3.91502 1.36108 3.77724 1.41815 3.67566 1.51973C3.57408 1.62132 3.51701 1.75909 3.51701 1.90275V2.44442H2.97534C2.54436 2.44442 2.13104 2.61562 1.82629 2.92037C1.52155 3.22512 1.35034 3.63844 1.35034 4.06942V10.5694C1.35034 11.0004 1.52155 11.4137 1.82629 11.7185C2.13104 12.0232 2.54436 12.1944 2.97534 12.1944H10.5587C10.9897 12.1944 11.403 12.0232 11.7077 11.7185C12.0125 11.4137 12.1837 11.0004 12.1837 10.5694V4.06942C12.1837 3.63844 12.0125 3.22512 11.7077 2.92037C11.403 2.61562 10.9897 2.44442 10.5587 2.44442ZM11.1003 10.5694C11.1003 10.7131 11.0433 10.8509 10.9417 10.9524C10.8401 11.054 10.7023 11.1111 10.5587 11.1111H2.97534C2.83168 11.1111 2.69391 11.054 2.59233 10.9524C2.49074 10.8509 2.43368 10.7131 2.43368 10.5694V5.69442H11.1003V10.5694ZM11.1003 4.61108H2.43368V4.06942C2.43368 3.92576 2.49074 3.78798 2.59233 3.6864C2.69391 3.58482 2.83168 3.52775 2.97534 3.52775H10.5587C10.7023 3.52775 10.8401 3.58482 10.9417 3.6864C11.0433 3.78798 11.1003 3.92576 11.1003 4.06942V4.61108ZM4.05867 10.0278C4.16581 10.0278 4.27053 9.99598 4.35961 9.93646C4.44869 9.87694 4.51811 9.79235 4.55911 9.69337C4.60011 9.59439 4.61083 9.48548 4.58993 9.38041C4.56903 9.27534 4.51744 9.17882 4.44169 9.10307C4.36594 9.02731 4.26942 8.97573 4.16435 8.95482C4.05928 8.93392 3.95036 8.94465 3.85139 8.98565C3.75241 9.02665 3.66781 9.09607 3.6083 9.18515C3.54878 9.27423 3.51701 9.37895 3.51701 9.48608C3.51701 9.62974 3.57408 9.76752 3.67566 9.8691C3.77724 9.97068 3.91502 10.0278 4.05867 10.0278Z" fill="#757575"/>
</g>
</svg>
