<svg width="25" height="24" viewBox="0 0 25 24" fill="none" xmlns="http://www.w3.org/2000/svg">
<g id="currency-dollar-circle">
<path id="Icon" d="M9.25806 14.6667C9.25806 15.9553 10.3027 17 11.5914 17H13.7581C15.1388 17 16.2581 15.8807 16.2581 14.5C16.2581 13.1193 15.1388 12 13.7581 12H11.7581C10.3773 12 9.25806 10.8807 9.25806 9.5C9.25806 8.11929 10.3773 7 11.7581 7H13.9247C15.2134 7 16.2581 8.04467 16.2581 9.33333M12.7581 5.5V7M12.7581 17V18.5M22.7581 12C22.7581 17.5228 18.2809 22 12.7581 22C7.23521 22 2.75806 17.5228 2.75806 12C2.75806 6.47715 7.23521 2 12.7581 2C18.2809 2 22.7581 6.47715 22.7581 12Z" stroke="#7D8BB7" stroke-width="2" stroke-linecap="round" stroke-linejoin="round"/>
</g>
</svg>
