<svg width="21" height="20" viewBox="0 0 21 20" fill="none" xmlns="http://www.w3.org/2000/svg">
<path d="M18.1794 4.16663L8.80856 4.16663M18.1794 15.8333L8.80856 15.8333M18.1794 9.99996L8.80856 9.99996M5.40097 4.16663C5.40097 4.85698 4.82886 5.41663 4.12312 5.41663C3.41739 5.41663 2.84528 4.85698 2.84528 4.16663C2.84528 3.47627 3.41739 2.91663 4.12312 2.91663C4.82886 2.91663 5.40097 3.47627 5.40097 4.16663ZM5.40097 15.8333C5.40097 16.5236 4.82886 17.0833 4.12312 17.0833C3.41739 17.0833 2.84528 16.5236 2.84528 15.8333C2.84528 15.1429 3.41739 14.5833 4.12312 14.5833C4.82886 14.5833 5.40097 15.1429 5.40097 15.8333ZM5.40097 9.99996C5.40097 10.6903 4.82886 11.25 4.12312 11.25C3.41739 11.25 2.84528 10.6903 2.84528 9.99996C2.84528 9.3096 3.41739 8.74996 4.12312 8.74996C4.82886 8.74996 5.40097 9.3096 5.40097 9.99996Z" stroke="#323232" stroke-width="2" stroke-linecap="round" stroke-linejoin="round"/>
</svg>
