<svg width="14" height="14" viewBox="0 0 14 14" fill="none" xmlns="http://www.w3.org/2000/svg">
<g id="Communication / envelope" clip-path="url(#clip0_1_3696)">
<path id="Vector" d="M9.80265 6.23625H10.3443C10.488 6.23625 10.6258 6.17918 10.7273 6.0776C10.8289 5.97601 10.886 5.83824 10.886 5.69458V5.15291C10.886 5.00925 10.8289 4.87148 10.7273 4.7699C10.6258 4.66831 10.488 4.61125 10.3443 4.61125H9.80265C9.65899 4.61125 9.52122 4.66831 9.41964 4.7699C9.31805 4.87148 9.26099 5.00925 9.26099 5.15291V5.69458C9.26099 5.83824 9.31805 5.97601 9.41964 6.0776C9.52122 6.17918 9.65899 6.23625 9.80265 6.23625ZM3.84432 6.77791H6.55265C6.69631 6.77791 6.83409 6.72084 6.93567 6.61926C7.03725 6.51768 7.09432 6.37991 7.09432 6.23625C7.09432 6.09259 7.03725 5.95481 6.93567 5.85323C6.83409 5.75165 6.69631 5.69458 6.55265 5.69458H3.84432C3.70066 5.69458 3.56289 5.75165 3.4613 5.85323C3.35972 5.95481 3.30265 6.09259 3.30265 6.23625C3.30265 6.37991 3.35972 6.51768 3.4613 6.61926C3.56289 6.72084 3.70066 6.77791 3.84432 6.77791ZM12.511 2.44458H1.67765C1.53399 2.44458 1.39622 2.50165 1.29464 2.60323C1.19305 2.70481 1.13599 2.84259 1.13599 2.98625V10.5696C1.13599 10.7132 1.19305 10.851 1.29464 10.9526C1.39622 11.0542 1.53399 11.1112 1.67765 11.1112H12.511C12.6546 11.1112 12.7924 11.0542 12.894 10.9526C12.9956 10.851 13.0527 10.7132 13.0527 10.5696V2.98625C13.0527 2.84259 12.9956 2.70481 12.894 2.60323C12.7924 2.50165 12.6546 2.44458 12.511 2.44458ZM11.9693 10.0279H2.21932V3.52791H11.9693V10.0279ZM3.84432 8.94458H6.55265C6.69631 8.94458 6.83409 8.88751 6.93567 8.78593C7.03725 8.68435 7.09432 8.54657 7.09432 8.40291C7.09432 8.25925 7.03725 8.12148 6.93567 8.0199C6.83409 7.91831 6.69631 7.86125 6.55265 7.86125H3.84432C3.70066 7.86125 3.56289 7.91831 3.4613 8.0199C3.35972 8.12148 3.30265 8.25925 3.30265 8.40291C3.30265 8.54657 3.35972 8.68435 3.4613 8.78593C3.56289 8.88751 3.70066 8.94458 3.84432 8.94458Z" fill="#757575"/>
</g>
<defs>
<clipPath id="clip0_1_3696">
<rect width="13" height="13" fill="white" transform="translate(0.594238 0.277832)"/>
</clipPath>
</defs>
</svg>
