<svg width="26" height="18" viewBox="0 0 26 18" fill="none" xmlns="http://www.w3.org/2000/svg">
<g id="Flag">
<rect id="Mask" x="0.61792" y="0.429932" width="24.8129" height="17.1429" rx="2" fill="white"/>
<mask id="mask0_58_460" style="mask-type:luminance" maskUnits="userSpaceOnUse" x="0" y="0" width="26" height="18">
<rect id="Mask_2" x="0.61792" y="0.429932" width="24.8129" height="17.1429" rx="2" fill="white"/>
</mask>
<g mask="url(#mask0_58_460)">
<path id="Rectangle 511" fill-rule="evenodd" clip-rule="evenodd" d="M25.4308 0.429932H0.61792V1.57279H25.4308V0.429932ZM25.4308 2.71565H0.61792V3.8585H25.4308V2.71565ZM0.61792 5.00136H25.4308V6.14422H0.61792V5.00136ZM25.4308 7.28707H0.61792V8.42993H25.4308V7.28707ZM0.61792 9.57279H25.4308V10.7156H0.61792V9.57279ZM25.4308 11.8585H0.61792V13.0014H25.4308V11.8585ZM0.61792 14.1442H25.4308V15.2871H0.61792V14.1442ZM25.4308 16.4299H0.61792V17.5728H25.4308V16.4299Z" fill="#D02F44"/>
<rect id="Rectangle 511_2" x="0.61792" y="0.429932" width="10.6341" height="8" fill="#46467F"/>
<g id="Oval 43" filter="url(#filter0_d_58_460)">
<path fill-rule="evenodd" clip-rule="evenodd" d="M2.98113 2.14418C2.98113 2.45977 2.71663 2.71561 2.39034 2.71561C2.06406 2.71561 1.79956 2.45977 1.79956 2.14418C1.79956 1.82859 2.06406 1.57275 2.39034 1.57275C2.71663 1.57275 2.98113 1.82859 2.98113 2.14418ZM5.34426 2.14418C5.34426 2.45977 5.07976 2.71561 4.75348 2.71561C4.4272 2.71561 4.1627 2.45977 4.1627 2.14418C4.1627 1.82859 4.4272 1.57275 4.75348 1.57275C5.07976 1.57275 5.34426 1.82859 5.34426 2.14418ZM7.11661 2.71561C7.4429 2.71561 7.7074 2.45977 7.7074 2.14418C7.7074 1.82859 7.4429 1.57275 7.11661 1.57275C6.79033 1.57275 6.52583 1.82859 6.52583 2.14418C6.52583 2.45977 6.79033 2.71561 7.11661 2.71561ZM10.0705 2.14418C10.0705 2.45977 9.80603 2.71561 9.47975 2.71561C9.15347 2.71561 8.88897 2.45977 8.88897 2.14418C8.88897 1.82859 9.15347 1.57275 9.47975 1.57275C9.80603 1.57275 10.0705 1.82859 10.0705 2.14418ZM3.57191 3.85847C3.89819 3.85847 4.1627 3.60263 4.1627 3.28704C4.1627 2.97145 3.89819 2.71561 3.57191 2.71561C3.24563 2.71561 2.98113 2.97145 2.98113 3.28704C2.98113 3.60263 3.24563 3.85847 3.57191 3.85847ZM6.52583 3.28704C6.52583 3.60263 6.26133 3.85847 5.93505 3.85847C5.60877 3.85847 5.34426 3.60263 5.34426 3.28704C5.34426 2.97145 5.60877 2.71561 5.93505 2.71561C6.26133 2.71561 6.52583 2.97145 6.52583 3.28704ZM8.29818 3.85847C8.62446 3.85847 8.88896 3.60263 8.88896 3.28704C8.88896 2.97145 8.62446 2.71561 8.29818 2.71561C7.9719 2.71561 7.7074 2.97145 7.7074 3.28704C7.7074 3.60263 7.9719 3.85847 8.29818 3.85847ZM10.0705 4.4299C10.0705 4.74549 9.80603 5.00133 9.47975 5.00133C9.15347 5.00133 8.88897 4.74549 8.88897 4.4299C8.88897 4.11431 9.15347 3.85847 9.47975 3.85847C9.80603 3.85847 10.0705 4.11431 10.0705 4.4299ZM7.11661 5.00133C7.4429 5.00133 7.7074 4.74549 7.7074 4.4299C7.7074 4.11431 7.4429 3.85847 7.11661 3.85847C6.79033 3.85847 6.52583 4.11431 6.52583 4.4299C6.52583 4.74549 6.79033 5.00133 7.11661 5.00133ZM5.34426 4.4299C5.34426 4.74549 5.07976 5.00133 4.75348 5.00133C4.4272 5.00133 4.1627 4.74549 4.1627 4.4299C4.1627 4.11431 4.4272 3.85847 4.75348 3.85847C5.07976 3.85847 5.34426 4.11431 5.34426 4.4299ZM2.39034 5.00133C2.71663 5.00133 2.98113 4.74549 2.98113 4.4299C2.98113 4.11431 2.71663 3.85847 2.39034 3.85847C2.06406 3.85847 1.79956 4.11431 1.79956 4.4299C1.79956 4.74549 2.06406 5.00133 2.39034 5.00133ZM4.1627 5.57275C4.1627 5.88835 3.89819 6.14418 3.57191 6.14418C3.24563 6.14418 2.98113 5.88835 2.98113 5.57275C2.98113 5.25716 3.24563 5.00133 3.57191 5.00133C3.89819 5.00133 4.1627 5.25716 4.1627 5.57275ZM5.93505 6.14418C6.26133 6.14418 6.52583 5.88835 6.52583 5.57275C6.52583 5.25716 6.26133 5.00133 5.93505 5.00133C5.60877 5.00133 5.34426 5.25716 5.34426 5.57275C5.34426 5.88835 5.60877 6.14418 5.93505 6.14418ZM8.88896 5.57275C8.88896 5.88835 8.62446 6.14418 8.29818 6.14418C7.9719 6.14418 7.7074 5.88835 7.7074 5.57275C7.7074 5.25716 7.9719 5.00133 8.29818 5.00133C8.62446 5.00133 8.88896 5.25716 8.88896 5.57275ZM9.47975 7.28704C9.80603 7.28704 10.0705 7.0312 10.0705 6.71561C10.0705 6.40002 9.80603 6.14418 9.47975 6.14418C9.15347 6.14418 8.88897 6.40002 8.88897 6.71561C8.88897 7.0312 9.15347 7.28704 9.47975 7.28704ZM7.7074 6.71561C7.7074 7.0312 7.4429 7.28704 7.11661 7.28704C6.79033 7.28704 6.52583 7.0312 6.52583 6.71561C6.52583 6.40002 6.79033 6.14418 7.11661 6.14418C7.4429 6.14418 7.7074 6.40002 7.7074 6.71561ZM4.75348 7.28704C5.07976 7.28704 5.34426 7.0312 5.34426 6.71561C5.34426 6.40002 5.07976 6.14418 4.75348 6.14418C4.4272 6.14418 4.1627 6.40002 4.1627 6.71561C4.1627 7.0312 4.4272 7.28704 4.75348 7.28704ZM2.98113 6.71561C2.98113 7.0312 2.71663 7.28704 2.39034 7.28704C2.06406 7.28704 1.79956 7.0312 1.79956 6.71561C1.79956 6.40002 2.06406 6.14418 2.39034 6.14418C2.71663 6.14418 2.98113 6.40002 2.98113 6.71561Z" fill="url(#paint0_linear_58_460)"/>
</g>
</g>
</g>
<defs>
<filter id="filter0_d_58_460" x="1.79956" y="1.57275" width="8.271" height="6.71436" filterUnits="userSpaceOnUse" color-interpolation-filters="sRGB">
<feFlood flood-opacity="0" result="BackgroundImageFix"/>
<feColorMatrix in="SourceAlpha" type="matrix" values="0 0 0 0 0 0 0 0 0 0 0 0 0 0 0 0 0 0 127 0" result="hardAlpha"/>
<feOffset dy="1"/>
<feColorMatrix type="matrix" values="0 0 0 0 0 0 0 0 0 0 0 0 0 0 0 0 0 0 0.06 0"/>
<feBlend mode="normal" in2="BackgroundImageFix" result="effect1_dropShadow_58_460"/>
<feBlend mode="normal" in="SourceGraphic" in2="effect1_dropShadow_58_460" result="shape"/>
</filter>
<linearGradient id="paint0_linear_58_460" x1="1.79956" y1="1.57275" x2="1.79956" y2="7.28704" gradientUnits="userSpaceOnUse">
<stop stop-color="white"/>
<stop offset="1" stop-color="#F0F0F0"/>
</linearGradient>
</defs>
</svg>
