<svg width="20" height="18" viewBox="0 0 20 18" fill="none" xmlns="http://www.w3.org/2000/svg">
<path d="M7.05385 1.5H3.48601C2.96018 1.5 2.69726 1.5 2.49642 1.59083C2.31975 1.67072 2.17611 1.79821 2.0861 1.95501C1.98376 2.13327 1.98376 2.36662 1.98376 2.83333V6C1.98376 6.46671 1.98376 6.70007 2.0861 6.87833C2.17611 7.03513 2.31975 7.16261 2.49642 7.24251C2.69726 7.33333 2.96018 7.33333 3.48601 7.33333H7.05385C7.57968 7.33333 7.8426 7.33333 8.04344 7.24251C8.22011 7.16261 8.36374 7.03513 8.45376 6.87833C8.55609 6.70007 8.55609 6.46671 8.55609 6V2.83333C8.55609 2.36662 8.55609 2.13327 8.45376 1.95501C8.36374 1.79821 8.22011 1.67072 8.04344 1.59083C7.8426 1.5 7.57968 1.5 7.05385 1.5Z" stroke="#323232" stroke-width="2" stroke-linecap="round" stroke-linejoin="round"/>
<path d="M17.3818 1.5H13.814C13.2881 1.5 13.0252 1.5 12.8244 1.59083C12.6477 1.67072 12.5041 1.79821 12.414 1.95501C12.3117 2.13327 12.3117 2.36662 12.3117 2.83333V6C12.3117 6.46671 12.3117 6.70007 12.414 6.87833C12.5041 7.03513 12.6477 7.16261 12.8244 7.24251C13.0252 7.33333 13.2881 7.33333 13.814 7.33333H17.3818C17.9076 7.33333 18.1705 7.33333 18.3714 7.24251C18.5481 7.16261 18.6917 7.03513 18.7817 6.87833C18.884 6.70007 18.884 6.46671 18.884 6V2.83333C18.884 2.36662 18.884 2.13327 18.7817 1.95501C18.6917 1.79821 18.5481 1.67072 18.3714 1.59083C18.1705 1.5 17.9076 1.5 17.3818 1.5Z" stroke="#323232" stroke-width="2" stroke-linecap="round" stroke-linejoin="round"/>
<path d="M17.3818 10.6667H13.814C13.2881 10.6667 13.0252 10.6667 12.8244 10.7575C12.6477 10.8374 12.5041 10.9649 12.414 11.1217C12.3117 11.2999 12.3117 11.5333 12.3117 12V15.1667C12.3117 15.6334 12.3117 15.8667 12.414 16.045C12.5041 16.2018 12.6477 16.3293 12.8244 16.4092C13.0252 16.5 13.2881 16.5 13.814 16.5H17.3818C17.9076 16.5 18.1705 16.5 18.3714 16.4092C18.5481 16.3293 18.6917 16.2018 18.7817 16.045C18.884 15.8667 18.884 15.6334 18.884 15.1667V12C18.884 11.5333 18.884 11.2999 18.7817 11.1217C18.6917 10.9649 18.5481 10.8374 18.3714 10.7575C18.1705 10.6667 17.9076 10.6667 17.3818 10.6667Z" stroke="#323232" stroke-width="2" stroke-linecap="round" stroke-linejoin="round"/>
<path d="M7.05385 10.6667H3.48601C2.96018 10.6667 2.69726 10.6667 2.49642 10.7575C2.31975 10.8374 2.17611 10.9649 2.0861 11.1217C1.98376 11.2999 1.98376 11.5333 1.98376 12V15.1667C1.98376 15.6334 1.98376 15.8667 2.0861 16.045C2.17611 16.2018 2.31975 16.3293 2.49642 16.4092C2.69726 16.5 2.96018 16.5 3.48601 16.5H7.05385C7.57968 16.5 7.8426 16.5 8.04344 16.4092C8.22011 16.3293 8.36374 16.2018 8.45376 16.045C8.55609 15.8667 8.55609 15.6334 8.55609 15.1667V12C8.55609 11.5333 8.55609 11.2999 8.45376 11.1217C8.36374 10.9649 8.22011 10.8374 8.04344 10.7575C7.8426 10.6667 7.57968 10.6667 7.05385 10.6667Z" stroke="#323232" stroke-width="2" stroke-linecap="round" stroke-linejoin="round"/>
</svg>
