<svg width="35" height="35" viewBox="0 0 35 35" fill="none" xmlns="http://www.w3.org/2000/svg">
<path d="M2.91663 10.2084L14.8238 18.5434C15.788 19.2183 16.2701 19.5558 16.7945 19.6865C17.2577 19.802 17.7422 19.802 18.2054 19.6865C18.7298 19.5558 19.2119 19.2183 20.1761 18.5434L32.0833 10.2084M9.91663 29.1667H25.0833C27.5335 29.1667 28.7586 29.1667 29.6945 28.6899C30.5177 28.2704 31.187 27.6011 31.6064 26.7779C32.0833 25.8421 32.0833 24.6169 32.0833 22.1667V12.8334C32.0833 10.3831 32.0833 9.15803 31.6064 8.22217C31.187 7.39896 30.5177 6.72967 29.6945 6.31022C28.7586 5.83337 27.5335 5.83337 25.0833 5.83337H9.91663C7.4664 5.83337 6.24128 5.83337 5.30542 6.31022C4.48221 6.72967 3.81292 7.39896 3.39347 8.22217C2.91663 9.15803 2.91663 10.3831 2.91663 12.8334V22.1667C2.91663 24.6169 2.91663 25.8421 3.39347 26.7779C3.81292 27.6011 4.48221 28.2704 5.30542 28.6899C6.24128 29.1667 7.4664 29.1667 9.91663 29.1667Z" stroke="#87BA37" stroke-width="2" stroke-linecap="round" stroke-linejoin="round"/>
</svg>
