<svg width="22" height="21" viewBox="0 0 22 21" fill="none" xmlns="http://www.w3.org/2000/svg">
<path d="M15 16.5L17 18.5L21 14.5M11 13.5H7C5.13623 13.5 4.20435 13.5 3.46927 13.8045C2.48915 14.2105 1.71046 14.9892 1.30448 15.9693C1 16.7044 1 17.6362 1 19.5M14.5 1.79076C15.9659 2.38415 17 3.82131 17 5.5C17 7.17869 15.9659 8.61585 14.5 9.20924M12.5 5.5C12.5 7.70914 10.7091 9.5 8.5 9.5C6.29086 9.5 4.5 7.70914 4.5 5.5C4.5 3.29086 6.29086 1.5 8.5 1.5C10.7091 1.5 12.5 3.29086 12.5 5.5Z" stroke="#757575" stroke-width="2" stroke-linecap="round" stroke-linejoin="round"/>
</svg>
