<svg width="13" height="14" viewBox="0 0 13 14" fill="none" xmlns="http://www.w3.org/2000/svg">
<g id="Users / users">
<path id="Vector" d="M6.66246 7.11921C6.95148 6.86903 7.1833 6.5596 7.34218 6.21193C7.50107 5.86425 7.5833 5.48647 7.58329 5.10421C7.58329 4.38591 7.29795 3.69704 6.79004 3.18913C6.28213 2.68122 5.59325 2.39587 4.87496 2.39587C4.15666 2.39587 3.46779 2.68122 2.95988 3.18913C2.45197 3.69704 2.16663 4.38591 2.16663 5.10421C2.16662 5.48647 2.24885 5.86425 2.40774 6.21193C2.56662 6.5596 2.79844 6.86903 3.08746 7.11921C2.3292 7.46256 1.68588 8.01704 1.23441 8.71634C0.782936 9.41564 0.542423 10.2302 0.541626 11.0625C0.541626 11.2062 0.598694 11.344 0.700276 11.4456C0.801859 11.5471 0.939634 11.6042 1.08329 11.6042C1.22695 11.6042 1.36473 11.5471 1.46631 11.4456C1.56789 11.344 1.62496 11.2062 1.62496 11.0625C1.62496 10.2006 1.96737 9.37394 2.57686 8.76444C3.18636 8.15495 4.01301 7.81254 4.87496 7.81254C5.73691 7.81254 6.56356 8.15495 7.17306 8.76444C7.78255 9.37394 8.12496 10.2006 8.12496 11.0625C8.12496 11.2062 8.18203 11.344 8.28361 11.4456C8.38519 11.5471 8.52297 11.6042 8.66663 11.6042C8.81029 11.6042 8.94806 11.5471 9.04964 11.4456C9.15123 11.344 9.20829 11.2062 9.20829 11.0625C9.2075 10.2302 8.96698 9.41564 8.51551 8.71634C8.06404 8.01704 7.42072 7.46256 6.66246 7.11921ZM4.87496 6.72921C4.55357 6.72921 4.23939 6.6339 3.97216 6.45535C3.70493 6.27679 3.49665 6.023 3.37366 5.72607C3.25066 5.42914 3.21848 5.1024 3.28118 4.78719C3.34388 4.47197 3.49865 4.18242 3.72591 3.95516C3.95317 3.7279 4.24272 3.57313 4.55794 3.51043C4.87316 3.44773 5.19989 3.47991 5.49682 3.6029C5.79375 3.7259 6.04754 3.93418 6.2261 4.20141C6.40465 4.46864 6.49996 4.78281 6.49996 5.10421C6.49996 5.53518 6.32875 5.94851 6.02401 6.25326C5.71926 6.558 5.30594 6.72921 4.87496 6.72921ZM10.1508 6.90254C10.4974 6.51218 10.7239 6.02995 10.8029 5.51389C10.8818 4.99784 10.81 4.46996 10.5959 3.99379C10.3819 3.51763 10.0348 3.11347 9.59638 2.82998C9.158 2.54648 8.64702 2.39573 8.12496 2.39587C7.9813 2.39587 7.84353 2.45294 7.74194 2.55452C7.64036 2.65611 7.58329 2.79388 7.58329 2.93754C7.58329 3.0812 7.64036 3.21897 7.74194 3.32056C7.84353 3.42214 7.9813 3.47921 8.12496 3.47921C8.55594 3.47921 8.96926 3.65041 9.27401 3.95516C9.57876 4.25991 9.74996 4.67323 9.74996 5.10421C9.74919 5.38871 9.67375 5.66803 9.53116 5.91423C9.38857 6.16042 9.18385 6.36487 8.93746 6.50712C8.85715 6.55345 8.79008 6.61961 8.74266 6.69927C8.69524 6.77894 8.66906 6.86944 8.66663 6.96212C8.66436 7.05408 8.68555 7.1451 8.72819 7.2266C8.77084 7.3081 8.83354 7.37739 8.91038 7.42796L9.12163 7.56879L9.19204 7.60671C9.84496 7.91639 10.3958 8.4062 10.7797 9.01846C11.1635 9.63072 11.3644 10.3399 11.3587 11.0625C11.3587 11.2062 11.4158 11.344 11.5174 11.4456C11.6189 11.5471 11.7567 11.6042 11.9004 11.6042C12.044 11.6042 12.1818 11.5471 12.2834 11.4456C12.385 11.344 12.442 11.2062 12.442 11.0625C12.4465 10.2313 12.2383 9.41276 11.8373 8.68466C11.4362 7.95655 10.8557 7.34308 10.1508 6.90254Z" fill="#8C8E98"/>
</g>
</svg>
