<svg width="150" height="150" viewBox="0 0 150 150" fill="none" xmlns="http://www.w3.org/2000/svg">
<g id="Pie">
<path id="Section 5" d="M45.7499 5.93891C55.1558 1.95516 65.2763 -0.0652447 75.4908 0.00160619L75 75L45.7499 5.93891Z" fill="#E5EAFC"/>
<path id="Section 4" d="M15.576 29.2421C23.502 18.9489 33.9657 10.891 45.9423 5.85776L75 75L15.576 29.2421Z" fill="#C6D2FD"/>
<path id="Section 3" d="M21.967 128.033C9.10238 115.168 1.35254 98.0662 0.161019 79.9119C-1.0305 61.7577 4.41754 43.7892 15.4904 29.3535L75 75L21.967 128.033Z" fill="#93AAFD"/>
<path id="Section 2" d="M128.033 128.033C113.968 142.098 94.8912 150 75 150C55.1088 150 36.0322 142.098 21.967 128.033L75 75L128.033 128.033Z" fill="#2D5BFF"/>
<path id="Section 1" d="M128.033 128.033C138.522 117.544 145.665 104.18 148.559 89.6318C151.453 75.0832 149.968 60.0032 144.291 46.2987C138.614 32.5943 129.001 20.8809 116.668 12.6398C104.334 4.39867 89.8336 1.11991e-06 75 0L75 75L128.033 128.033Z" fill="#4A3AFF"/>
</g>
</svg>
